HIERARCHY
ROOT Hips
{
	OFFSET 0.000000 0.000000 0.000000
	CHANNELS 6 Xposition Yposition Zposition Xrotation Yrotation Zrotation
	JOINT LeftUpLeg_virtual
	{
		OFFSET 0.000000 0.000000 0.000000
		CHANNELS 3 Xrotation Yrotation Zrotation
		JOINT LeftUpLeg
		{
			OFFSET 15.427100 -6.655098 0.678600
			CHANNELS 3 Xrotation Yrotation Zrotation
			JOINT LeftLeg
			{
				OFFSET 4.081073 -39.591068 13.024000
				CHANNELS 3 Xrotation Yrotation Zrotation
				JOINT LeftFoot
				{
					OFFSET -4.081074 -37.707932 -15.979700
					CHANNELS 3 Xrotation Yrotation Zrotation
					JOINT LeftToeBase
					{
						OFFSET 5.346399 -15.068900 20.645000
						CHANNELS 3 Xrotation Yrotation Zrotation
						JOINT LeftToe_End
						{
							OFFSET 2.754700 0.931300 11.300900
							CHANNELS 3 Xrotation Yrotation Zrotation
							End Site
							{
								OFFSET 0 0 0
							}
						}
					}
				}
			}
		}
	}
	JOINT RightUpLeg_virtual
	{
		OFFSET 0.000000 0.000000 0.000000
		CHANNELS 3 Xrotation Yrotation Zrotation
		JOINT RightUpLeg
		{
			OFFSET -15.569500 -6.655098 0.678600
			CHANNELS 3 Xrotation Yrotation Zrotation
			JOINT RightLeg
			{
				OFFSET -4.081825 -39.591045 13.023800
				CHANNELS 3 Xrotation Yrotation Zrotation
				JOINT RightFoot
				{
					OFFSET 4.081824 -37.707954 -15.979600
					CHANNELS 3 Xrotation Yrotation Zrotation
					JOINT RightToeBase
					{
						OFFSET -5.346400 -15.068900 20.645000
						CHANNELS 3 Xrotation Yrotation Zrotation
						JOINT RightToe_End
						{
							OFFSET -2.754700 0.931300 11.300900
							CHANNELS 3 Xrotation Yrotation Zrotation
							End Site
							{
								OFFSET 0 0 0
							}
						}
					}
				}
			}
		}
	}
	JOINT Spine_virtual
	{
		OFFSET 0.000000 0.000000 0.000000
		CHANNELS 3 Xrotation Yrotation Zrotation
		JOINT Spine
		{
			OFFSET -0.279200 12.230698 -2.892100
			CHANNELS 3 Xrotation Yrotation Zrotation
			JOINT Spine1
			{
				OFFSET -0.232667 10.192268 -1.242267
				CHANNELS 3 Xrotation Yrotation Zrotation
				JOINT Spine1_split
				{
					OFFSET -0.232667 10.192268 -1.242267
					CHANNELS 3 Xrotation Yrotation Zrotation
					JOINT Spine2
					{
						OFFSET -0.232667 10.192268 -1.242267
						CHANNELS 3 Xrotation Yrotation Zrotation
						JOINT Neck_virtual
						{
							OFFSET 0.000000 0.000000 0.000000
							CHANNELS 3 Xrotation Yrotation Zrotation
							JOINT Neck
							{
								OFFSET -0.418800 17.814194 8.416900
								CHANNELS 3 Xrotation Yrotation Zrotation
								JOINT Head
								{
									OFFSET 0.000000 7.031097 3.806800
									CHANNELS 3 Xrotation Yrotation Zrotation
									JOINT HeadTop_End
									{
										OFFSET 0.000000 24.646606 12.978600
										CHANNELS 3 Xrotation Yrotation Zrotation
										End Site
										{
											OFFSET 0 0 0
										}
									}
								}
							}
						}
						JOINT LeftShoulder_virtual
						{
							OFFSET 0.000000 0.000000 0.000000
							CHANNELS 3 Xrotation Yrotation Zrotation
							JOINT LeftShoulder
							{
								OFFSET 8.476499 7.247704 -3.868750
								CHANNELS 3 Xrotation Yrotation Zrotation
								JOINT LeftShoulder_split
								{
									OFFSET 8.476499 7.247704 -3.868750
									CHANNELS 3 Xrotation Yrotation Zrotation
									JOINT LeftArm
									{
										OFFSET 9.308998 -2.777710 0.208600
										CHANNELS 3 Xrotation Yrotation Zrotation
										JOINT LeftForeArm
										{
											OFFSET 29.972298 0.000000 0.000000
											CHANNELS 3 Xrotation Yrotation Zrotation
											JOINT LeftHand
											{
												OFFSET 26.026505 0.000000 0.000000
												CHANNELS 3 Xrotation Yrotation Zrotation
												End Site
												{
													OFFSET 0 0 0
												}
											}
										}
									}
								}
							}
						}
						JOINT RightShoulder_virtual
						{
							OFFSET 0.000000 0.000000 0.000000
							CHANNELS 3 Xrotation Yrotation Zrotation
							JOINT RightShoulder
							{
								OFFSET -7.570500 7.247704 -3.868750
								CHANNELS 3 Xrotation Yrotation Zrotation
								JOINT RightShoulder_split
								{
									OFFSET -7.570500 7.247704 -3.868750
									CHANNELS 3 Xrotation Yrotation Zrotation
									JOINT RightArm
									{
										OFFSET -9.308998 -2.777710 0.208500
										CHANNELS 3 Xrotation Yrotation Zrotation
										JOINT RightForeArm
										{
											OFFSET -29.972300 0.000000 0.000000
											CHANNELS 3 Xrotation Yrotation Zrotation
											JOINT RightHand
											{
												OFFSET -26.026505 0.000000 0.000000
												CHANNELS 3 Xrotation Yrotation Zrotation
												End Site
												{
													OFFSET 0 0 0
												}
											}
										}
									}
								}
							}
						}
					}
				}
			}
		}
	}
}
MOTION
Frames: 11
Frame Time: 0.03333333
2.989801 81.172226 0.513016 0.000000 0.000000 0.000000 6.530396 -66.847082 10.524887 -29.661077 4.812017 17.959851 38.236458 -5.780439 -9.377109 -13.913933 -2.437949 -14.418873 1.655633 -0.643000 2.071983 0.000000 0.000000 0.000000 0.481800 -61.861966 6.731069 -22.776063 -0.121134 -38.365446 36.812302 -1.911581 -3.311258 -15.723145 -1.891926 25.740821 -2.290381 3.227491 0.461726 0.000000 0.000000 0.000000 -3.790434 -64.906550 1.483526 7.547706 3.702395 -5.385101 6.470614 0.754651 -5.949104 2.389874 -1.924695 0.730225 0.000000 0.000000 0.000000 6.934783 1.262071 -5.144730 -14.365302 23.563772 4.318886 -1.764162 14.925463 1.681206 0.000000 0.000000 0.000000 6.483008 0.737897 -5.444728 -6.280971 -20.818452 -1.717739 -9.049012 1.042543 -2.622306 -13.643562 20.082491 -28.456668 0.372028 -33.150132 2.023952 0.000000 0.000000 0.000000 6.346352 1.208867 -5.249877 -3.985052 3.797258 6.331259 0.795739 -0.705884 0.122770 -38.542296 -22.281607 29.602730 -171.723756 60.835539 169.520036 0.000000 0.000000 0.000000 
0.905903 81.450638 0.967121 0.000000 0.000000 0.000000 6.161557 -66.914769 10.128351 -28.893114 7.362528 19.233744 38.191751 -6.908406 -9.633485 -13.513300 -2.896083 -12.574447 2.168321 -0.556202 1.632850 0.000000 0.000000 0.000000 1.013266 -62.363274 6.861745 -23.703378 0.056784 -36.956863 41.913569 -1.397575 -2.740121 -15.699092 -0.362427 21.561738 2.691660 3.395099 0.520433 0.000000 0.000000 0.000000 -3.010136 -65.069792 2.796983 7.213582 3.145757 -5.628323 5.652104 0.306086 -6.585683 0.689217 -2.489092 -0.109919 0.000000 0.000000 0.000000 5.865649 1.000118 -5.971685 -13.010247 23.498730 2.864651 -0.765209 15.033494 1.312457 0.000000 0.000000 0.000000 5.772126 0.449224 -5.950314 -5.935886 -20.107655 -0.599932 -9.073701 -0.768537 -0.905223 -15.534773 17.828459 -28.114618 0.885199 -35.625700 1.980592 0.000000 0.000000 0.000000 5.236382 0.685720 -5.822694 -4.222764 2.124459 6.039392 0.531168 -1.338558 0.644878 -39.293091 -22.677485 29.931426 -172.758092 57.285063 170.848986 0.000000 0.000000 0.000000 
-2.898026 81.945862 1.364155 0.000000 0.000000 0.000000 5.661873 -65.552577 9.772513 -27.504000 10.872368 20.850462 36.268212 -7.535719 -10.144281 -12.877191 -2.986091 -11.933113 2.866341 -0.392907 1.023565 0.000000 0.000000 0.000000 1.794239 -62.606327 7.501633 -27.834887 1.432112 -36.115575 50.346906 1.862897 -1.934533 -10.718211 3.265632 22.695452 -4.193438 3.385750 -0.237483 0.000000 0.000000 0.000000 -0.471889 -64.547309 5.411567 6.978277 2.587890 -5.363908 4.322828 -0.425062 -8.223514 -0.595649 -2.329745 -0.331233 0.000000 0.000000 0.000000 4.229314 0.372388 -7.645220 -11.354410 23.150004 0.077583 -0.269046 14.550847 1.990982 0.000000 0.000000 0.000000 4.383738 -0.149754 -7.451448 -5.508840 -18.151001 1.347915 -8.202057 -1.470494 0.254794 -18.030967 15.550842 -27.332238 0.764871 -39.678468 1.260111 0.000000 0.000000 0.000000 3.438539 -0.183958 -7.340247 -4.416037 0.853063 4.960305 1.789020 -0.303600 1.365372 -42.006630 -27.865650 30.278106 -173.587140 50.271388 172.453329 0.000000 0.000000 0.000000 
-7.792217 82.289421 1.630184 0.000000 0.000000 0.000000 5.558350 -63.308422 9.926970 -25.657484 14.539641 22.416519 33.171842 -7.921026 -10.576001 -11.804846 -3.094970 -13.376829 2.475380 -0.183801 0.507999 0.000000 0.000000 0.000000 3.250393 -62.073777 9.048427 -33.109987 3.957318 -35.861430 58.550178 6.435592 -1.694493 -4.389988 7.775321 26.302189 -18.710786 3.240359 -1.134356 0.000000 0.000000 0.000000 3.084560 -63.261629 8.777768 6.903405 2.066075 -4.768296 2.847137 -1.191865 -10.407395 -0.839002 -1.694982 -0.113218 0.000000 0.000000 0.000000 2.384361 -0.382671 -9.745038 -9.570470 22.474276 -3.470900 -0.489786 13.392488 3.368303 0.000000 0.000000 0.000000 2.613444 -0.849492 -9.529960 -5.310679 -15.269754 3.652684 -7.238546 -1.544477 0.916430 -21.078990 14.023539 -26.119296 0.213740 -45.273933 0.191960 0.000000 0.000000 0.000000 1.301346 -1.055139 -9.409571 -4.603156 0.336666 3.199763 4.103091 1.753819 1.519167 -47.165414 -35.554639 28.669238 -173.636222 43.885854 173.444649 0.000000 0.000000 0.000000 
-13.135501 82.244385 1.752209 0.000000 0.000000 0.000000 6.032469 -60.749342 10.897645 -23.612896 17.508138 23.781085 29.877187 -8.730595 -10.389330 -10.412450 -3.702272 -17.023048 0.759075 0.075968 0.150237 0.000000 0.000000 0.000000 4.569545 -60.565562 10.815598 -37.325201 6.893203 -36.004755 63.535574 9.521342 -1.718266 0.587186 10.449292 27.809450 -29.057578 2.689570 -1.537698 0.000000 0.000000 0.000000 6.602024 -61.522505 12.112707 6.989384 1.577143 -4.074892 1.484630 -1.732481 -12.523943 -0.487254 -1.944134 0.294571 0.000000 0.000000 0.000000 0.720212 -0.968751 -11.684271 -8.014360 21.466455 -6.934292 -1.715989 12.094293 4.862016 0.000000 0.000000 0.000000 0.929641 -1.372923 -11.482849 -5.413414 -12.176817 6.335067 -5.981612 -1.379550 1.162141 -24.533375 13.453397 -24.523115 0.041484 -51.981544 -0.512284 0.000000 0.000000 0.000000 -0.707796 -1.638942 -11.421032 -4.912364 0.759722 0.650084 5.769168 2.969846 1.259010 -55.207613 -42.248371 23.457747 -173.156210 40.278606 173.740219 0.000000 0.000000 0.000000 
-18.693758 81.615402 1.808109 0.000000 0.000000 0.000000 6.913296 -57.971709 12.489251 -21.281956 19.272610 24.753994 27.265429 -9.777753 -9.293374 -10.047634 -4.577043 -20.981783 -0.825611 0.352946 -0.392830 0.000000 0.000000 0.000000 5.814237 -58.689384 12.783966 -39.501163 9.556119 -37.203740 63.848185 10.270116 -0.955497 3.470963 9.508015 26.171630 -28.759874 1.453906 -1.037735 0.000000 0.000000 0.000000 9.505114 -59.386302 14.855513 7.024765 1.088611 -3.462684 0.500829 -1.872750 -13.953632 -0.276546 -2.309448 1.253381 0.000000 0.000000 0.000000 -0.341149 -1.253384 -12.915457 -7.062570 20.212881 -9.679630 -3.950038 10.738804 5.744512 0.000000 0.000000 0.000000 -0.254317 -1.525835 -12.693733 -5.811613 -9.347391 9.023364 -5.117874 -1.225695 0.902317 -27.496499 14.293147 -23.099066 1.254884 -58.913612 0.100260 0.000000 0.000000 0.000000 -2.066725 -1.785479 -12.791950 -5.160514 2.269047 -2.712683 5.979039 2.455770 1.200254 -64.812942 -45.073791 15.357923 -172.322299 39.454448 173.289959 0.000000 0.000000 0.000000 
-24.295582 80.477081 1.718212 0.000000 0.000000 0.000000 7.704826 -55.229166 14.197172 -18.372821 19.529220 25.257599 25.846735 -11.334578 -7.503811 -10.832875 -5.332736 -24.257390 -1.485745 0.718679 -1.338806 0.000000 0.000000 0.000000 6.944171 -56.902596 14.823266 -39.630936 11.985503 -39.681582 59.852353 9.250614 0.166661 4.930564 5.746678 23.424035 -22.701209 0.038401 0.128973 0.000000 0.000000 0.000000 11.590915 -56.785448 16.931091 6.960767 0.633486 -3.010917 0.096336 -1.634618 -14.295034 0.076693 -2.616148 1.773595 0.000000 0.000000 0.000000 -0.534830 -1.160598 -13.144203 -6.847689 18.824377 -11.293196 -7.172063 9.593247 5.424003 0.000000 0.000000 0.000000 -0.568958 -1.329917 -12.739982 -6.372066 -6.972851 11.222750 -4.618541 -0.099444 0.702098 -29.592823 16.391658 -22.380964 4.310018 -65.310843 2.594593 0.000000 0.000000 0.000000 -2.441621 -1.525814 -13.119695 -5.209904 4.560592 -7.073519 5.445169 0.657596 1.678981 -71.706598 -43.318395 8.455142 -171.406985 40.159695 172.370629 0.000000 0.000000 0.000000 
-29.629978 79.043877 1.304489 0.000000 0.000000 0.000000 8.413485 -52.778142 15.811673 -15.950986 18.507221 25.908311 25.525865 -13.322773 -5.598415 -12.213860 -5.793831 -26.083084 -1.191401 1.206753 -3.004834 0.000000 0.000000 0.000000 7.975636 -55.391735 16.472919 -38.034335 13.946353 -42.742713 52.822282 7.669325 0.453285 5.766189 1.164998 22.374513 -16.868165 -0.986586 1.045710 0.000000 0.000000 0.000000 12.982235 -54.354652 18.341022 6.954691 0.335457 -2.590377 0.298373 -1.030162 -13.443536 0.926180 -2.851713 1.667142 0.000000 0.000000 0.000000 0.257066 -0.709310 -12.256197 -7.409675 17.268523 -11.285586 -10.918804 9.421217 3.714295 0.000000 0.000000 0.000000 0.153247 -0.833165 -11.605467 -6.919931 -5.201654 12.723909 -4.056556 1.965302 0.795352 -30.934548 19.495001 -22.797493 9.162773 -70.048480 6.960497 0.000000 0.000000 0.000000 -1.644966 -0.995816 -12.331399 -4.846904 7.276218 -12.318679 3.522916 -0.656467 1.648288 -73.015603 -39.500630 5.743217 -170.430828 41.847019 171.216190 0.000000 0.000000 0.000000 
-34.705688 77.594780 0.459072 0.000000 0.000000 0.000000 8.787483 -50.993386 16.740254 -15.182561 16.273235 27.241141 26.603766 -14.550955 -4.251321 -12.332248 -5.887354 -25.521965 -0.520609 1.767403 -5.659204 0.000000 0.000000 0.000000 9.158701 -54.406794 17.607236 -35.644247 15.305190 -45.129314 45.500360 6.982663 -0.484730 5.037009 -2.593546 23.405603 -10.477279 -1.376480 1.207181 0.000000 0.000000 0.000000 13.622561 -52.213835 18.934234 7.168114 0.318869 -1.966321 1.096195 -0.065680 -11.631973 1.495262 -2.810389 1.324420 0.000000 0.000000 0.000000 2.013144 0.046701 -10.489246 -8.488196 15.667906 -9.461885 -14.554604 10.634850 0.791799 0.000000 0.000000 0.000000 1.725635 -0.046729 -9.659149 -7.396642 -3.664367 12.977809 -3.507361 3.407025 1.053525 -30.858395 23.736492 -24.767985 14.021362 -73.238766 11.622586 0.000000 0.000000 0.000000 0.111146 -0.259171 -10.680317 -3.892270 10.123869 -18.019772 0.449477 -0.504828 1.221491 -69.528307 -36.105452 6.864993 -169.201066 44.556141 169.723876 0.000000 0.000000 0.000000 
-39.570042 76.516792 -0.449654 0.000000 0.000000 0.000000 9.060772 -50.419237 16.991935 -16.701211 12.865237 29.453835 29.936227 -14.617419 -3.574935 -9.480530 -5.642963 -22.854472 -0.934937 2.417755 -9.041943 0.000000 0.000000 0.000000 10.122704 -53.732968 17.889852 -33.929979 16.181922 -45.519113 40.883187 7.357839 -2.227875 1.291248 -5.024379 24.973694 -2.654674 -1.274692 0.756073 0.000000 0.000000 0.000000 13.831853 -50.892522 19.084090 7.652001 0.726925 -0.947143 2.407789 1.142972 -9.330603 1.888977 -2.844706 0.930693 0.000000 0.000000 0.000000 4.442069 1.086224 -8.330551 -9.514976 14.224677 -6.093604 -17.624518 13.386851 -2.690524 0.000000 0.000000 0.000000 3.915521 0.977707 -7.419788 -7.717193 -2.173084 12.012266 -2.717966 4.193053 1.274735 -28.734971 28.249212 -28.554075 16.915570 -75.497052 14.633168 0.000000 0.000000 0.000000 2.537255 0.699766 -8.620551 -2.606394 12.699092 -23.631666 -2.103826 1.314144 1.042567 -63.176579 -34.386328 10.743717 -167.578159 48.261440 167.713328 0.000000 0.000000 0.000000 
-44.461918 75.892876 -1.407135 0.000000 0.000000 0.000000 9.905041 -51.217792 17.117395 -20.607560 9.006573 31.838087 35.979575 -13.130617 -3.581737 -4.745778 -4.533530 -18.312634 -2.728238 3.219460 -12.563620 0.000000 0.000000 0.000000 10.755743 -53.602215 17.633716 -33.559568 16.163969 -44.044553 40.887910 8.180834 -3.715031 -4.916593 -6.261719 26.072181 4.345507 -1.050108 0.010055 0.000000 0.000000 0.000000 13.913921 -50.567476 18.982156 8.459858 1.597367 0.566280 4.188677 2.523252 -7.072007 1.696553 -2.760015 0.435338 0.000000 0.000000 0.000000 7.140775 2.288726 -6.241646 -10.137375 13.198884 -1.610823 -19.519733 17.312755 -6.107752 0.000000 0.000000 0.000000 6.347769 2.214824 -5.409076 -7.788364 -0.826201 10.060454 -1.871554 3.915208 1.314279 -24.435422 32.120423 -34.242365 15.964532 -76.462568 14.018716 0.000000 0.000000 0.000000 5.309840 1.866400 -6.652215 -1.201699 14.755377 -28.328237 -3.192273 4.202662 1.013281 -56.403313 -34.535936 15.519295 -165.328294 52.699052 164.950981 0.000000 0.000000 0.000000 
